<svg width="201" height="201" viewBox="0 0 201 201" fill="none" xmlns="http://www.w3.org/2000/svg">
<path d="M100.5 0.916748C155.5 0.916748 200.083 45.5002 200.083 100.5C200.083 155.5 155.5 200.083 100.5 200.083C45.5001 200.083 0.916626 155.5 0.916626 100.5C0.916626 45.5002 45.5001 0.916748 100.5 0.916748ZM100.5 20.8334C56.504 20.8334 20.8333 56.5042 20.8333 100.5C20.8333 144.496 56.504 180.167 100.5 180.167C144.496 180.167 180.167 144.496 180.167 100.5C180.167 56.5042 144.496 20.8334 100.5 20.8334ZM100.5 30.7917C110.638 30.7917 120.267 32.9527 128.961 36.8464L113.396 52.4013C109.283 51.3059 104.961 50.7084 100.5 50.7084C73.005 50.7084 50.7083 73.0051 50.7083 100.5C50.7083 114.243 56.285 126.691 65.2873 135.713L51.2062 149.794L49.6527 148.191C37.9616 135.723 30.7916 118.943 30.7916 100.5C30.7916 62.0012 62.001 30.7917 100.5 30.7917ZM164.154 72.0491C168.037 80.7328 170.208 90.3725 170.208 100.5C170.208 119.75 162.401 137.177 149.794 149.794L135.713 135.713C144.715 126.691 150.292 114.243 150.292 100.5C150.292 96.0388 149.704 91.7168 148.599 87.604L164.154 72.0491ZM142.743 44.1658L156.834 58.2469L119.749 95.3516C120.188 96.9948 120.417 98.7175 120.417 100.5C120.417 111.504 111.504 120.417 100.5 120.417C89.496 120.417 80.5833 111.504 80.5833 100.5C80.5833 89.4961 89.496 80.5834 100.5 80.5834C102.283 80.5834 104.005 80.8125 105.648 81.2506L142.753 44.1658H142.743Z" fill="#F2F2F2"/>
</svg>
