<svg width="141" height="130" viewBox="0 0 141 130" fill="none" xmlns="http://www.w3.org/2000/svg">
<path d="M101.79 0C123.117 0 140.4 17.5676 140.4 42.1622C140.4 91.3513 87.75 119.459 70.2 130C56.3144 121.659 20.4703 102.335 6.09336 70.2703H39.0733L45.63 59.3362L66.69 94.4714L81.1933 70.2703H105.3V56.2162H73.2467L66.69 67.1503L45.63 32.0151L31.1267 56.2162H1.4742C0.51948 51.74 0 47.053 0 42.1622C0 17.5676 17.55 0 38.61 0C51.6672 0 63.18 7.02703 70.2 14.0541C77.22 7.02703 88.7328 0 101.79 0Z" fill="white"/>
</svg>
